<svg width="18" height="18" viewBox="0 0 18 18" fill="none" xmlns="http://www.w3.org/2000/svg">
<path d="M15.9331 0.724575C14.9654 -0.241525 13.3983 -0.241525 12.4306 0.724575L11.5538 1.60621L2.22087 10.9351L2.20103 10.9551C2.19623 10.9599 2.19623 10.965 2.19111 10.965C2.1812 10.9799 2.16632 10.9946 2.15656 11.0095C2.15656 11.0144 2.15144 11.0144 2.15144 11.0194C2.14153 11.0343 2.13672 11.0442 2.12665 11.0591C2.12185 11.064 2.12185 11.0688 2.11689 11.074C2.11193 11.0888 2.10697 11.0988 2.10186 11.1136C2.10186 11.1184 2.09705 11.1184 2.09705 11.1236L0.0263517 17.351C-0.0343918 17.5283 0.0117857 17.7246 0.145204 17.8562C0.238954 17.9487 0.3654 18.0005 0.496959 18C0.550729 17.9991 0.604035 17.9907 0.655481 17.9752L6.87751 15.8993C6.88231 15.8993 6.88231 15.8993 6.88742 15.8945C6.90308 15.8899 6.91811 15.8832 6.9319 15.8745C6.93577 15.8741 6.93918 15.8724 6.94197 15.8697C6.95669 15.8598 6.97653 15.8498 6.9914 15.8398C7.00612 15.8301 7.02115 15.8152 7.03603 15.8053C7.04099 15.8002 7.04579 15.8002 7.04579 15.7954C7.0509 15.7904 7.06082 15.7856 7.06578 15.7755L17.2755 5.56484C18.2415 4.59703 18.2415 3.02979 17.2755 2.06214L15.9331 0.724575ZM6.71899 14.735L3.27117 11.287L11.9006 2.65677L15.3484 6.10476L6.71899 14.735ZM2.78553 12.2036L5.79761 15.2158L1.27469 16.7218L2.78553 12.2036ZM16.5771 4.87118L16.0519 5.40134L12.604 1.95304L13.1342 1.42304C13.7143 0.843439 14.6544 0.843439 15.2345 1.42304L16.5819 2.77052C17.1576 3.35322 17.1554 4.29127 16.5771 4.87118Z" fill="#FFFFFF"/>
</svg>
